{"title":"Hugo 2011 BRRiP x264-nenad023","uid":7042225,"size":523367200,"categoryP":"video","categoryS":"movies","magnet":"?xt=urn:btih:951a3adb20fbb1a054ca4f94333e45183fabe717&amp;dn=Hugo+2011+BRRiP+x264-nenad023&amp;tr=udp%3A%2F%2Ftracker.openbittorrent.com%3A80&amp;tr=udp%3A%2F%2Fopen.demonii.com%3A1337&amp;tr=udp%3A%2F%2Ftracker.coppersurfer.tk%3A6969&amp;tr=udp%3A%2F%2Fexodus.desync.com%3A6969","seeders":0,"leechers":0,"uploader":"nenadpopov","files":4,"time":1329591226,"description":"\n\nHugo 2011 BRRiP x264-nenad023\n\n\nGeneral\nComplete name                            : Hugo 2011 BRRiP x264-nenad023.mkv\nFormat                                   : Matroska\nFormat version                           : Version 2\nFile size                                : 499 MiB\nDuration                                 : 2h 6mn\nOverall bit rate mode                    : Variable\nOverall bit rate                         : 552 Kbps\nMovie name                               : Hugo 2011 BRRiP x264-nenad023\nEncoded date                             : UTC 2012-02-18 14:28:15\nWriting application                      : mkvmerge v4.6.0 ('Still Crazy After All These Years') built on Mar 10 2011 02:50:32\nWriting library                          : libebml v1.2.0 + libmatroska v1.1.0\n\nVideo\nID                                       : 1\nFormat                                   : AVC\nFormat/Info                              : Advanced Video Codec\nFormat profile                           : &lt;a class=&quot;__cf_email__&quot; href=&quot;/cdn-cgi/l/email-protection&quot; data-cfemail=&quot;c58daca2ad8589f1ebf5&quot;&gt;[email&amp;#160;protected]&lt;/a&gt;&lt;script cf-hash='f9e31' type=&quot;text/javascript&quot;&gt;\n/* &lt;![CDATA[ */!function(){try{var t=&quot;currentScript&quot;in document?document.currentScript:function(){for(var t=document.getElementsByTagName(&quot;script&quot;),e=t.length;e--;)if(t[e].getAttribute(&quot;cf-hash&quot;))return t[e]}();if(t&amp;&amp;t.previousSibling){var e,r,n,i,c=t.previousSibling,a=c.getAttribute(&quot;data-cfemail&quot;);if(a){for(e=&quot;&quot;,r=parseInt(a.substr(0,2),16),n=2;a.length-n;n+=2)i=parseInt(a.substr(n,2),16)^r,e+=String.fromCharCode(i);e=document.createTextNode(e),c.parentNode.replaceChild(e,c)}}}catch(u){}}();/* ]]&gt; */&lt;/script&gt;\nFormat settings, CABAC                   : Yes\nFormat settings, ReFrames                : 3 frames\nCodec ID                                 : V_MPEG4/ISO/AVC\nDuration                                 : 2h 6mn\nBit rate mode                            : Variable\nBit rate                                 : 423 Kbps\nMaximum bit rate                         : 25.0 Mbps\nWidth                                    : 640 pixels\nHeight                                   : 352 pixels\nDisplay aspect ratio                     : 16:9\nFrame rate                               : 23.976 fps\nColor space                              : YUV\nChroma subsampling                       : 4:2:0\nBit depth                                : 8 bits\nScan type                                : Progressive\nBits/(Pixel*Frame)                       : 0.078\nStream size                              : 373 MiB (75%)\nWriting library                          : x264 core 114 r1924 08d04a4\nEncoding settings                        : cabac=1 / ref=3 / deblock=1:0:0 / analyse=0x3:0x133 / me=umh / subme=7 / psy=1 / psy_rd=1.00:0.00 / mixed_ref=1 / me_range=16 / chroma_me=1 / trellis=1 / 8x8dct=1 / cqm=0 / deadzone=21,11 / fast_pskip=1 / chroma_qp_offset=-2 / threads=3 / sliced_threads=0 / nr=0 / decimate=1 / interlaced=0 / constrained_intra=0 / bframes=3 / b_pyramid=0 / b_adapt=1 / b_bias=0 / direct=1 / weightb=1 / open_gop=0 / weightp=2 / keyint=240 / keyint_min=24 / scenecut=40 / intra_refresh=0 / rc_lookahead=40 / rc=2pass / mbtree=1 / bitrate=423 / ratetol=1.0 / qcomp=0.60 / qpmin=0 / qpmax=69 / qpstep=4 / cplxblur=20.0 / qblur=0.5 / vbv_maxrate=25000 / vbv_bufsize=25000 / nal_hrd=vbr / ip_ratio=1.40 / aq=1:1.00\nDefault                                  : Yes\nForced                                   : No\n\nAudio\nID                                       : 2\nFormat                                   : MPEG Audio\nFormat version                           : Version 1\nFormat profile                           : Layer 3\nCodec ID                                 : A_MPEG/L3\nCodec ID/Hint                            : MP3\nDuration                                 : 2h 6mn\nBit rate mode                            : Constant\nBit rate                                 : 128 Kbps\nChannel(s)                               : 2 channels\nSampling rate                            : 48.0 KHz\nCompression mode                         : Lossy\nStream size                              : 116 MiB (23%)\nWriting library                          : LAMELAME_MAJOR_VERSI\nDefault                                  : Yes\nForced                                   : No\n\nenjoy and please seed\nnenad023","torrent":{"xt":"urn:btih:951a3adb20fbb1a054ca4f94333e45183fabe717","amp;dn":"Hugo+2011+BRRiP+x264-nenad023","amp;tr":["udp%3A%2F%2Ftracker.openbittorrent.com%3A80","udp%3A%2F%2Fopen.demonii.com%3A1337","udp%3A%2F%2Ftracker.coppersurfer.tk%3A6969","udp%3A%2F%2Fexodus.desync.com%3A6969"],"infoHash":"951a3adb20fbb1a054ca4f94333e45183fabe717","infoHashBuffer":{"type":"Buffer","data":[149,26,58,219,32,251,177,160,84,202,79,148,51,62,69,24,63,171,231,23]},"announce":[],"urlList":[]}}